<svg xmlns="http://www.w3.org/2000/svg" viewBox="0 0 900 600">
  <rect width="900" height="200" fill="#FF9933"/>
  <rect y="200" width="900" height="200" fill="#FFFFFF"/>
  <rect y="400" width="900" height="200" fill="#138808"/>
  <circle cx="450" cy="300" r="90" fill="none" stroke="#000080" stroke-width="4"/>
  <circle cx="450" cy="300" r="86" fill="none" stroke="#000080" stroke-width="2"/>
  <circle cx="450" cy="300" r="10" fill="#000080"/>
  <g transform="translate(450, 300)">
    <line x1="0" y1="-86" x2="0" y2="86" stroke="#000080" stroke-width="2"/>
    <line x1="-86" y1="0" x2="86" y2="0" stroke="#000080" stroke-width="2"/>
    <line x1="-60.8" y1="-60.8" x2="60.8" y2="60.8" stroke="#000080" stroke-width="2"/>
    <line x1="-60.8" y1="60.8" x2="60.8" y2="-60.8" stroke="#000080" stroke-width="2"/>
    
    <line x1="-22.3" y1="-83" x2="22.3" y2="83" stroke="#000080" stroke-width="2"/>
    <line x1="-22.3" y1="83" x2="22.3" y2="-83" stroke="#000080" stroke-width="2"/>
    <line x1="-83" y1="-22.3" x2="83" y2="22.3" stroke="#000080" stroke-width="2"/>
    <line x1="-83" y1="22.3" x2="83" y2="-22.3" stroke="#000080" stroke-width="2"/>
    
    <line x1="-43" y1="-74.5" x2="43" y2="74.5" stroke="#000080" stroke-width="2"/>
    <line x1="-43" y1="74.5" x2="43" y2="-74.5" stroke="#000080" stroke-width="2"/>
    <line x1="-74.5" y1="-43" x2="74.5" y2="43" stroke="#000080" stroke-width="2"/>
    <line x1="-74.5" y1="43" x2="74.5" y2="-43" stroke="#000080" stroke-width="2"/>
  </g>
</svg>
